# xmcd CD database file
# Copyright (C) 1993-1998 Ti Kan
#
# Track frame offsets:
#  183
#  29195
#  54520
#  75028
#  91088
#  108925
#  128113
#  147538
#  165975
#
# Disc length: 2472 seconds
#
# Revision: 1
# Processed by: cddbd v1.4b41PL1 Copyright (c) Steve Scherf et al.
# Submitted via: CDWizzard Release:4.35
#
DISCID=6909a609
DTITLE=Quincy Jones - The Dude
DYEAR=1900
DGENRE=
TTITLE0=Ai No Corrida
TTITLE1=The Dude
TTITLE2=Just Once
TTITLE3=Betcha' Wouldn't Hurt Me
TTITLE4=Sometin' Special
TTITLE5=Razzamatazz
TTITLE6=One Hundred Ways
TTITLE7=Velas
TTITLE8=Turn On The Action
EXTD=
EXTT0=
EXTT1=
EXTT2=
EXTT3=
EXTT4=
EXTT5=
EXTT6=
EXTT7=
EXTT8=
PLAYORDER=
